PathFileType	4	(X/Y/Z)	Patient4_TMGait_0pt6_02_left_17.trc.trc
DataRate	CameraRate	NumFrames	NumMarkers	Units	OrigDataRate	OrigDataStartFrame	OrigNumFrames
83.333333333333	83.333333333333	6	33	mm	83.333333333333	71	       141
Frame#	Time	Sacral			L.Shoulder			Chest			R.Shoulder			Neck			R.ASIS			L.ASIS			R.Thigh.Superior			R.Thigh.Lateral			R.Thigh.Inferior			R.Patella			L.Thigh.Superior			L.Thigh.Lateral			L.Thigh.Inferior			L.Patella			L.Shank.Superior			L.Shank.Lateral			L.Shank.Inferior			R.Shank.Superior			R.Shank.Lateral			R.Shank.Inferior			R.Heel			R.Midfoot.Superior			R.Midfoot.Lateral			R.Toe			L.Heel			L.Midfoot.Lateral			L.Midfoot.Superior			L.Toe			L.Elbow			L.Wrist			R.Elbow			R.Wrist			
		X1	Y1	Z1	X2	Y2	Z2	X3	Y3	Z3	X4	Y4	Z4	X5	Y5	Z5	X6	Y6	Z6	X7	Y7	Z7	X8	Y8	Z8	X9	Y9	Z9	X10	Y10	Z10	X11	Y11	Z11	X12	Y12	Z12	X13	Y13	Z13	X14	Y14	Z14	X15	Y15	Z15	X16	Y16	Z16	X17	Y17	Z17	X18	Y18	Z18	X19	Y19	Z19	X20	Y20	Z20	X21	Y21	Z21	X22	Y22	Z22	X23	Y23	Z23	X24	Y24	Z24	X25	Y25	Z25	X26	Y26	Z26	X27	Y27	Z27	X28	Y28	Z28	X29	Y29	Z29	X30	Y30	Z30	X31	Y31	Z31	X32	Y32	Z32	X33	Y33	Z33	

71	21.730000000000	785.448745198635	1007.799871367134	457.841403133438	1002.870256859707	1435.838963402560	305.248434776824	1082.088436662773	1352.597662258238	471.361069162244	985.334968941274	1427.315315750264	637.036994037650	986.612122473308	1489.954630113003	457.535760027453	1002.731930318922	940.610369045769	591.270022629421	1006.893587293293	954.445972126208	313.601938664542	1084.680583985933	779.605591620822	561.905401136860	1049.743378251847	655.763661286419	636.590264696588	1137.598646620901	623.464615006458	554.031848091381	1176.274527281936	540.694047814498	571.137727775218	1012.147215584408	728.188618201099	347.432394981130	902.274579278382	633.051643698678	277.329164037449	958.533058303090	539.560977665509	346.480045700387	942.183091685565	472.175746659555	355.787045107500	907.962713428108	405.413475177453	344.712605489841	805.445893635961	306.042316891222	288.471318122745	833.366164432525	188.538878295240	361.132131173537	1161.743120329410	449.524617489803	583.847551954219	1112.379513607908	336.624369137860	652.399735860578	1179.500572116496	250.048100954013	598.683405096440	1086.167840215690	61.484058899472	573.638774321613	1248.428172038239	137.625240865579	615.408818803964	1170.108032789999	60.541593712764	647.932032967353	1372.964157384580	100.216950116240	641.089869000440	686.776296357606	41.802372247492	395.687108353715	761.600552120224	37.065528099665	316.730681987274	846.058976689479	95.961240646211	345.426086459899	973.378630891005	39.828392982440	316.639040199261	1041.620941889557	1104.103748276276	154.700202004153	1289.680212606557	1056.505108240907	196.751582507664	821.943214161598	1113.601554130696	716.270123086344	781.131288294686	854.781985365034	713.108728275537	
72	21.742000000000	787.573948420723	1005.928353977941	460.615556847060	1002.822943613121	1434.567822214819	307.160542757272	1082.749335167675	1351.655500822916	473.070297403071	986.156982100029	1426.082082031157	638.945680972087	986.683683552118	1488.610408777961	459.405062895723	1005.051726325403	938.820172268660	593.187484482969	1008.395681640008	952.873360016550	315.520801662368	1084.587197709103	774.602968760316	564.067634972378	1046.914353914969	651.363201258813	638.402943161840	1133.700423419944	617.734075771271	555.366606665216	1170.236150193558	535.532072386491	572.048761592098	1012.074619461987	726.269881698004	349.015885230207	901.132179240985	632.151157932832	278.922227821141	956.712810511195	537.995775544335	347.578324950583	939.672564514310	470.493281050239	356.765026458054	904.634615264896	404.200536735978	345.541870947919	800.789511518636	306.168841482571	289.177615266934	827.361805706177	188.128441228170	361.400077428149	1157.224698761181	444.566213902936	584.944040968310	1109.103478575788	330.782056406549	652.799936049284	1177.632375619980	245.330700640475	598.735227880014	1086.687500933660	56.237189636346	572.515587402707	1248.136164382221	133.105070946050	614.915715873586	1170.476365983603	55.572666429338	646.883661684066	1373.011536013448	96.624939818031	640.228253075207	679.537245562294	42.188792700833	395.528639096408	754.431138951928	37.239299901670	316.660569890479	839.030789635278	95.967751450273	345.362130633147	966.197379030375	39.720587788761	316.523698574878	1043.965228327440	1103.134409959019	157.147609057763	1292.678087980605	1061.197627395390	200.169111473077	821.196332022207	1113.522428322432	717.893828412781	779.931867933276	854.710477952949	714.484034202882	
73	21.754000000000	789.821882266722	1003.934457356170	463.521662337877	1002.651821209848	1433.128993512133	309.169959175851	1083.421899638691	1350.685785872471	474.890966857575	986.963461421846	1424.788523550285	640.981356779907	986.678580038143	1487.174557225983	461.364835945153	1007.486742655331	936.896522332013	595.319434545468	1010.203089771178	951.239756955848	317.728482412836	1085.009439219024	769.896842322385	566.421405860756	1044.526080784571	647.130166040288	639.988140862650	1130.678632086655	612.477231326377	556.877538487848	1164.801261392940	530.323676671097	573.020822883286	1012.298682593533	724.270060523473	350.697010366210	900.293933654259	631.168875938608	280.673582517066	955.323080805566	536.341076618772	348.755766260174	937.664532642499	468.622908445828	357.783665020115	901.636926517484	402.854162388752	346.435881599880	796.344420388292	306.322138117562	289.927818384362	821.443197464485	187.694919691409	361.646498561470	1152.643594607299	439.457408118707	585.850265802049	1104.616972484093	325.245377702286	652.737181334830	1173.791724020259	240.414093067052	598.389721706581	1083.479236075727	52.037966986343	570.858300656567	1244.723648965199	127.971999002114	613.872437548315	1167.003428595305	50.996917310783	645.410229274059	1369.537576972568	91.272950346797	638.977612129330	672.276945577977	42.673358467807	395.316727818938	747.254286022359	37.414172986350	316.550138688469	832.034571314135	95.967571348422	345.241521787399	959.037267464481	39.617602263259	316.392371806461	1045.832955420503	1101.844673747986	159.691528402086	1295.037907565892	1064.912081808403	203.533105988958	821.543856249584	1112.803056453870	720.030847808015	780.437128276261	853.881215189089	716.487630588685	
74	21.766000000000	792.130372502218	1001.892126168926	466.520247680413	1002.383174629758	1431.554719015820	311.282366878248	1084.119962752328	1349.709067580966	476.830880400308	987.775186262950	1423.473027695214	643.151067969955	986.642746538727	1485.691852123077	463.423213025327	1009.992725384902	934.893585791714	597.668696950154	1012.253077414058	949.596452023859	320.213421317041	1085.950982350570	765.542575784583	569.005001564513	1042.533069254427	643.125168609228	641.337014930171	1128.535975965289	607.747117111997	558.580963645510	1160.079532063094	525.210620669485	574.005287209270	1012.859499023050	722.258568121057	352.454307900768	899.837433199058	630.102189257478	282.586089885912	954.507260251086	534.615346436777	350.011094861053	936.339472414080	466.550754713633	358.827867005147	899.101440332356	401.367053157783	347.402410379170	792.218364659145	306.539319451696	290.737084727447	815.687458659373	187.268269112660	361.871887069627	1148.176162236236	434.354294468313	586.550457859865	1099.308829665566	320.092197059878	652.340181153920	1168.426898922017	235.411611695265	597.723874715527	1077.191265835264	48.753092593092	568.931003504906	1238.800814961936	122.475952767841	612.387020176122	1160.409799789084	46.906734062956	643.739308443745	1363.261433495479	84.612678559427	637.430689878379	665.020735912386	43.356972583561	395.056044731536	740.082088315671	37.642830138698	316.405054366662	825.112934953203	95.971862385652	345.057758889084	951.903242289588	39.510674286973	316.243453715566	1047.216535456427	1100.232357939136	162.341500527241	1296.794117866780	1067.581841595826	206.825827703297	823.016216744252	1111.437823773563	722.659848469684	782.693343826469	852.306759552557	719.097777200328	
75	21.778000000000	794.429735120994	999.892412234706	469.572478032009	1002.051914971656	1429.904092247626	313.499443412281	1084.856394820085	1348.760150848380	478.891697288609	988.620292909060	1422.191128317941	645.456797428812	986.629758993994	1484.226704237424	465.585843032103	1012.517368627395	932.890723331641	600.221515983688	1014.455767944340	948.008704340406	322.941734905537	1087.359273346960	761.582044642091	571.839675998394	1040.878454726470	639.432724645866	642.495883685595	1127.193176020234	603.587502710907	560.482314579037	1156.131798274203	520.364590916440	574.981897261831	1013.798917160511	720.326228850817	354.272526899222	899.859461396427	628.953619147382	284.662256951015	954.429504493321	532.850099740991	351.351248461640	935.896054643814	464.279307654323	359.887530064270	897.184395142731	399.747314539286	348.451603454431	788.546187506585	306.876310894979	291.625470850877	810.197370480278	186.901982668361	362.084524320466	1143.986614897922	429.448735181220	587.073542950650	1093.610375685719	315.427305410816	651.773333198627	1162.063393179406	230.502738600671	596.846760655740	1068.651403780629	46.265291720950	566.985440209197	1231.094653991582	116.951385631810	610.599526169065	1151.581069936344	43.410959656090	642.081922627368	1355.017674551716	77.241193227684	635.704093163903	657.812078931644	44.386783631344	394.760282637205	732.936923142585	38.016250258951	316.237283487224	818.326464423552	96.004996892542	344.812107403135	944.796738379086	39.386788681323	316.079188190830	1048.105645761762	1098.323885544339	165.116611763988	1297.972510860429	1069.147887440458	210.036621346422	825.618280381192	1109.470969122084	725.740767725706	786.732392286693	850.049716975790	722.280289171088	
76	21.790000000000	796.647015566047	998.036359443826	472.642063872435	1001.699238778415	1428.260889951826	315.817662495011	1085.640353545084	1347.886151188670	481.067811155194	989.530000596113	1421.011455750508	647.893836411194	986.695144810784	1482.858754659323	467.854018124625	1014.999144183118	930.987948569924	602.950704353582	1016.701905739485	946.555381436017	325.867818854865	1089.128718407857	758.061852464924	574.921001233433	1039.515543438065	636.161682846325	643.554794067685	1126.512368388719	600.045893941812	562.571238024156	1152.971810124339	515.973140843129	575.966350172082	1015.156620848015	718.577803272815	356.146553885758	900.472601515424	627.733029153964	286.902953897769	955.264926505617	531.090962223292	352.791548449388	936.536600004308	461.832842994882	360.958968600865	896.058231156888	398.021532800758	349.594424819592	785.485431729997	307.407979801014	292.614960337326	805.099057064202	186.675599905177	362.300635207176	1140.211686034811	424.948182879484	587.489573543501	1087.939087887782	311.369318561344	651.216008782901	1155.233408549995	225.904004778231	595.889802423006	1058.748935372134	44.472266116087	565.229579182546	1222.350231209996	111.758723089298	608.676496251585	1141.444929671353	40.599651441759	640.608827310973	1345.648836226481	69.806360406323	633.936638398246	650.715441808083	45.956872628888	394.452856977580	725.854136445260	38.668242144670	316.065133791196	811.753344838792	96.108465823562	344.515817535425	937.714532126112	39.227757014983	315.907265282716	1048.486620375945	1096.176201720950	168.043510781116	1298.586967260554	1069.559973694530	213.161331465771	829.332701492131	1106.992900645491	729.220150421279	792.565823064614	847.219297963713	725.991772313437	
